<svg width="36" height="36" viewBox="0 0 36 36" fill="none" xmlns="http://www.w3.org/2000/svg">
<rect width="36" height="36" rx="8" fill="#155BF9"/>
<path d="M18 21C19.6569 21 21 19.6569 21 18C21 16.3431 19.6569 15 18 15C16.3431 15 15 16.3431 15 18C15 19.6569 16.3431 21 18 21Z" stroke="white" stroke-width="1.5" stroke-miterlimit="10" stroke-linecap="round" stroke-linejoin="round"/>
<path d="M8 18.8799V17.1199C8 16.0799 8.85 15.2199 9.9 15.2199C11.71 15.2199 12.45 13.9399 11.54 12.3699C11.02 11.4699 11.33 10.2999 12.24 9.77994L13.97 8.78994C14.76 8.31994 15.78 8.59994 16.25 9.38994L16.36 9.57994C17.26 11.1499 18.74 11.1499 19.65 9.57994L19.76 9.38994C20.23 8.59994 21.25 8.31994 22.04 8.78994L23.77 9.77994C24.68 10.2999 24.99 11.4699 24.47 12.3699C23.56 13.9399 24.3 15.2199 26.11 15.2199C27.15 15.2199 28.01 16.0699 28.01 17.1199V18.8799C28.01 19.9199 27.16 20.7799 26.11 20.7799C24.3 20.7799 23.56 22.0599 24.47 23.6299C24.99 24.5399 24.68 25.6999 23.77 26.2199L22.04 27.2099C21.25 27.6799 20.23 27.3999 19.76 26.6099L19.65 26.4199C18.75 24.8499 17.27 24.8499 16.36 26.4199L16.25 26.6099C15.78 27.3999 14.76 27.6799 13.97 27.2099L12.24 26.2199C11.33 25.6999 11.02 24.5299 11.54 23.6299C12.45 22.0599 11.71 20.7799 9.9 20.7799C8.85 20.7799 8 19.9199 8 18.8799Z" stroke="white" stroke-width="1.5" stroke-miterlimit="10" stroke-linecap="round" stroke-linejoin="round"/>
</svg>
