<svg width="37" height="36" viewBox="0 0 37 36" fill="none" xmlns="http://www.w3.org/2000/svg">
<rect x="0.166504" width="36" height="36" rx="8" fill="#155BF9"/>
<path d="M14.1665 8V11" stroke="white" stroke-width="1.5" stroke-miterlimit="10" stroke-linecap="round" stroke-linejoin="round"/>
<path d="M22.1665 8V11" stroke="white" stroke-width="1.5" stroke-miterlimit="10" stroke-linecap="round" stroke-linejoin="round"/>
<path d="M9.6665 15.0898H26.6665" stroke="white" stroke-width="1.5" stroke-miterlimit="10" stroke-linecap="round" stroke-linejoin="round"/>
<path d="M27.1665 14.5V23C27.1665 26 25.6665 28 22.1665 28H14.1665C10.6665 28 9.1665 26 9.1665 23V14.5C9.1665 11.5 10.6665 9.5 14.1665 9.5H22.1665C25.6665 9.5 27.1665 11.5 27.1665 14.5Z" stroke="white" stroke-width="1.5" stroke-miterlimit="10" stroke-linecap="round" stroke-linejoin="round"/>
<path d="M21.8612 19.7002H21.8702" stroke="white" stroke-width="2" stroke-linecap="round" stroke-linejoin="round"/>
<path d="M21.8612 22.7002H21.8702" stroke="white" stroke-width="2" stroke-linecap="round" stroke-linejoin="round"/>
<path d="M18.162 19.7002H18.171" stroke="white" stroke-width="2" stroke-linecap="round" stroke-linejoin="round"/>
<path d="M18.162 22.7002H18.171" stroke="white" stroke-width="2" stroke-linecap="round" stroke-linejoin="round"/>
<path d="M14.4608 19.7002H14.4698" stroke="white" stroke-width="2" stroke-linecap="round" stroke-linejoin="round"/>
<path d="M14.4608 22.7002H14.4698" stroke="white" stroke-width="2" stroke-linecap="round" stroke-linejoin="round"/>
</svg>
