<svg width="37" height="36" viewBox="0 0 37 36" fill="none" xmlns="http://www.w3.org/2000/svg">
<rect x="0.833496" width="36" height="36" rx="8" fill="#155BF9"/>
<path d="M28.8335 15V21C28.8335 23.5 28.3335 25.25 27.2135 26.38L20.8335 20L28.5635 12.27C28.7435 13.06 28.8335 13.96 28.8335 15Z" stroke="white" stroke-width="1.5" stroke-linecap="round" stroke-linejoin="round"/>
<path d="M28.5635 12.27L13.1035 27.73C10.0935 27.04 8.8335 24.96 8.8335 21V15C8.8335 10 10.8335 8 15.8335 8H21.8335C25.7935 8 27.8735 9.26 28.5635 12.27Z" stroke="white" stroke-width="1.5" stroke-linecap="round" stroke-linejoin="round"/>
<path d="M27.2135 26.38C26.0835 27.5 24.3335 28 21.8335 28H15.8335C14.7935 28 13.8935 27.91 13.1035 27.73L20.8335 20L27.2135 26.38Z" stroke="white" stroke-width="1.5" stroke-linecap="round" stroke-linejoin="round"/>
<path d="M13.0733 13.9802C13.7533 11.0502 18.1533 11.0502 18.8333 13.9802C19.2233 15.7002 18.1433 17.1602 17.1933 18.0602C16.5033 18.7202 15.4133 18.7202 14.7133 18.0602C13.7633 17.1602 12.6733 15.7002 13.0733 13.9802Z" stroke="white" stroke-width="1.5"/>
<path d="M15.9281 14.7002H15.9371" stroke="white" stroke-width="2" stroke-linecap="round" stroke-linejoin="round"/>
</svg>
