<svg width="25" height="24" viewBox="0 0 25 24" fill="none" xmlns="http://www.w3.org/2000/svg">
<path d="M22.3335 9.00002V15C22.3335 17.5 21.8335 19.25 20.7135 20.38L14.3335 14L22.0635 6.27002C22.2435 7.06002 22.3335 7.96002 22.3335 9.00002Z" stroke="#155BF9" stroke-width="1.5" stroke-linecap="round" stroke-linejoin="round"/>
<path d="M22.0635 6.27L6.60349 21.73C3.59349 21.04 2.3335 18.96 2.3335 15V9C2.3335 4 4.3335 2 9.3335 2H15.3335C19.2935 2 21.3735 3.26 22.0635 6.27Z" stroke="#155BF9" stroke-width="1.5" stroke-linecap="round" stroke-linejoin="round"/>
<path d="M20.7135 20.38C19.5835 21.5 17.8335 22 15.3335 22H9.33353C8.29353 22 7.39352 21.91 6.60352 21.73L14.3335 14L20.7135 20.38Z" stroke="#155BF9" stroke-width="1.5" stroke-linecap="round" stroke-linejoin="round"/>
<path d="M6.57327 7.98021C7.25327 5.05021 11.6533 5.05021 12.3333 7.98021C12.7233 9.70021 11.6433 11.1602 10.6933 12.0602C10.0033 12.7202 8.91329 12.7202 8.21329 12.0602C7.26329 11.1602 6.17327 9.70021 6.57327 7.98021Z" stroke="#155BF9" stroke-width="1.5"/>
<path d="M9.4281 8.7002H9.43708" stroke="#155BF9" stroke-width="2" stroke-linecap="round" stroke-linejoin="round"/>
</svg>
