<svg width="37" height="36" viewBox="0 0 37 36" fill="none" xmlns="http://www.w3.org/2000/svg">
<rect x="0.333496" width="36" height="36" rx="8" fill="#F5F8FF"/>
<path d="M28.3335 15V21C28.3335 23.5 27.8335 25.25 26.7135 26.38L20.3335 20L28.0635 12.27C28.2435 13.06 28.3335 13.96 28.3335 15Z" stroke="#155BF9" stroke-width="1.5" stroke-linecap="round" stroke-linejoin="round"/>
<path d="M28.0635 12.27L12.6035 27.73C9.59349 27.04 8.3335 24.96 8.3335 21V15C8.3335 10 10.3335 8 15.3335 8H21.3335C25.2935 8 27.3735 9.26 28.0635 12.27Z" stroke="#155BF9" stroke-width="1.5" stroke-linecap="round" stroke-linejoin="round"/>
<path d="M26.7135 26.38C25.5835 27.5 23.8335 28 21.3335 28H15.3335C14.2935 28 13.3935 27.91 12.6035 27.73L20.3335 20L26.7135 26.38Z" stroke="#155BF9" stroke-width="1.5" stroke-linecap="round" stroke-linejoin="round"/>
<path d="M12.5733 13.9802C13.2533 11.0502 17.6533 11.0502 18.3333 13.9802C18.7233 15.7002 17.6433 17.1602 16.6933 18.0602C16.0033 18.7202 14.9133 18.7202 14.2133 18.0602C13.2633 17.1602 12.1733 15.7002 12.5733 13.9802Z" stroke="#155BF9" stroke-width="1.5"/>
<path d="M15.4281 14.7002H15.4371" stroke="#155BF9" stroke-width="2" stroke-linecap="round" stroke-linejoin="round"/>
</svg>
