<svg width="37" height="36" viewBox="0 0 37 36" fill="none" xmlns="http://www.w3.org/2000/svg">
<rect x="0.666504" width="36" height="36" rx="8" fill="#F5F8FF"/>
<path d="M14.6665 8V11" stroke="#155BF9" stroke-width="1.5" stroke-miterlimit="10" stroke-linecap="round" stroke-linejoin="round"/>
<path d="M22.6665 8V11" stroke="#155BF9" stroke-width="1.5" stroke-miterlimit="10" stroke-linecap="round" stroke-linejoin="round"/>
<path d="M10.1665 15.0898H27.1665" stroke="#155BF9" stroke-width="1.5" stroke-miterlimit="10" stroke-linecap="round" stroke-linejoin="round"/>
<path d="M27.6665 14.5V23C27.6665 26 26.1665 28 22.6665 28H14.6665C11.1665 28 9.6665 26 9.6665 23V14.5C9.6665 11.5 11.1665 9.5 14.6665 9.5H22.6665C26.1665 9.5 27.6665 11.5 27.6665 14.5Z" stroke="#155BF9" stroke-width="1.5" stroke-miterlimit="10" stroke-linecap="round" stroke-linejoin="round"/>
<path d="M22.3612 19.7002H22.3702" stroke="#155BF9" stroke-width="2" stroke-linecap="round" stroke-linejoin="round"/>
<path d="M22.3612 22.7002H22.3702" stroke="#155BF9" stroke-width="2" stroke-linecap="round" stroke-linejoin="round"/>
<path d="M18.662 19.7002H18.671" stroke="#155BF9" stroke-width="2" stroke-linecap="round" stroke-linejoin="round"/>
<path d="M18.662 22.7002H18.671" stroke="#155BF9" stroke-width="2" stroke-linecap="round" stroke-linejoin="round"/>
<path d="M14.9608 19.7002H14.9698" stroke="#155BF9" stroke-width="2" stroke-linecap="round" stroke-linejoin="round"/>
<path d="M14.9608 22.7002H14.9698" stroke="#155BF9" stroke-width="2" stroke-linecap="round" stroke-linejoin="round"/>
</svg>
