<svg width="32" height="32" viewBox="0 0 32 32" fill="none" xmlns="http://www.w3.org/2000/svg">
<rect width="32" height="32" rx="16" fill="#155BF9"/>
<path d="M21.9275 9.3375L21.9981 9.3335L22.0848 9.33883L22.1448 9.3495L22.2268 9.37283L22.2981 9.4035L22.3648 9.4415L22.4248 9.48616L22.4794 9.53616L22.5141 9.5755L22.5688 9.65283L22.6034 9.71683C22.6348 9.7835 22.6548 9.85416 22.6635 9.9275L22.6668 9.99816C22.6668 10.0482 22.6614 10.0975 22.6508 10.1448L22.6274 10.2268L18.2728 22.2782C18.1902 22.4579 18.0578 22.6101 17.8913 22.7168C17.7248 22.8235 17.5312 22.8802 17.3334 22.8802C17.1553 22.8807 16.9801 22.8352 16.8248 22.7479C16.6696 22.6606 16.5396 22.5346 16.4474 22.3822L16.4041 22.2975L14.1695 17.8295L9.72278 15.6055C9.55825 15.5302 9.41636 15.4131 9.3113 15.2658C9.20624 15.1185 9.14169 14.9462 9.12412 14.7662L9.12012 14.6668C9.12012 14.2935 9.32078 13.9522 9.68078 13.7535L9.77412 13.7068L21.7854 9.3695L21.8561 9.3495L21.9275 9.3375Z" fill="white"/>
</svg>
